<svg width="109" height="40" viewBox="0 0 109 40" fill="none" xmlns="http://www.w3.org/2000/svg">
<g clip-path="url(#clip0_2893_10464)">
<path d="M9.99234 11.6742C9.35171 11.2482 8.60775 11.0035 7.83932 10.9659H7.73573C7.41986 10.9674 7.11735 11.0935 6.894 11.3169C6.67064 11.5402 6.54451 11.8427 6.54304 12.1586V32.5352C6.54304 33.1932 6.07828 33.462 5.50712 33.1316L1.02751 30.5502C0.728012 30.3527 0.479026 30.0877 0.300569 29.7765C0.122112 29.4653 0.0191631 29.1166 0 28.7584L0 10.9435C0.0200081 10.5848 0.123906 10.2358 0.303337 9.92464C0.482769 9.61343 0.732727 9.34867 1.03311 9.15165L16.4626 0.24562C16.7835 0.0841182 17.1378 0 17.4971 0C17.8564 0 18.2107 0.0841182 18.5316 0.24562L25.251 4.11769C25.5511 4.31503 25.8008 4.57987 25.9802 4.89101C26.1596 5.20215 26.2637 5.55096 26.2841 5.90953V22.5177C26.2841 23.1756 25.853 23.394 25.3238 23.0021L9.99234 11.6742Z" fill="#0D6EAC"/>
<path d="M33.9583 9.15165C34.2594 9.3482 34.51 9.61278 34.6899 9.92405C34.8699 10.2353 34.9741 10.5845 34.9942 10.9435V28.7584C34.9745 29.1174 34.8705 29.4668 34.6905 29.7781C34.5105 30.0895 34.2597 30.354 33.9583 30.5502L18.5316 39.459C18.2107 39.6205 17.8564 39.7047 17.4971 39.7047C17.1378 39.7047 16.7835 39.6205 16.4626 39.459L10.0792 35.7662C9.77862 35.5693 9.52855 35.3046 9.3491 34.9933C9.16964 34.6821 9.06584 34.333 9.04605 33.9743V15.9971C9.04605 15.3391 9.47721 15.1207 10.0064 15.5127L25.3154 26.8405C25.9569 27.267 26.7019 27.5118 27.4713 27.5489H27.5748C27.8912 27.5481 28.1944 27.4223 28.4184 27.1989C28.6424 26.9754 28.7689 26.6725 28.7703 26.3562V7.34861C28.7703 6.69347 29.2351 6.42469 29.8035 6.75226L33.9583 9.15165Z" fill="#0E3659"/>
<path fill-rule="evenodd" clip-rule="evenodd" d="M102.516 5.30453H103.364V5H101.332V5.30453H102.174V7.56577H102.516V5.30453ZM105.822 7.56577H106.144V5H105.634L104.936 7.13873L104.241 5H103.732V7.56577H104.054V5.38329L104.786 7.56577H105.09L105.822 5.38329V7.56577ZM57.4112 6.61023C57.413 6.71911 57.3926 6.82722 57.3511 6.92793C57.3097 7.02864 57.2481 7.11983 57.1702 7.19591C57.0957 7.27307 57.0062 7.33422 56.9072 7.37565C56.8082 7.41708 56.7019 7.43791 56.5946 7.43688C56.485 7.43701 56.3766 7.41482 56.2759 7.37166C56.1752 7.32851 56.0844 7.26529 56.0089 7.18587C55.9298 7.11227 55.8668 7.02317 55.8237 6.92413C55.7806 6.8251 55.7583 6.71824 55.7583 6.61023C55.7583 6.50221 55.7806 6.39536 55.8237 6.29632C55.8668 6.19728 55.9298 6.10818 56.0089 6.03458C56.0844 5.95516 56.1752 5.89195 56.2759 5.84879C56.3766 5.80564 56.485 5.78345 56.5946 5.78358C56.7019 5.78254 56.8082 5.80337 56.9072 5.8448C57.0062 5.88623 57.0957 5.94739 57.1702 6.02454C57.2481 6.10062 57.3097 6.19181 57.3511 6.29252C57.3926 6.39323 57.413 6.50134 57.4112 6.61023ZM57.2907 20.1211H55.8382V10.0038H57.2907V20.1211ZM52.9366 20.1211H51.4606L44.4525 8.81241V20.1211H43V5.98774H44.4525L51.4606 17.2764V5.98774H52.9366V20.1211ZM69.57 9.84319C68.4202 9.87866 67.2993 10.2119 66.3169 10.8104C66.0233 10.5043 65.6696 10.2621 65.2779 10.0992C64.8863 9.93617 64.4652 9.85587 64.0411 9.86327C63.1613 9.85551 62.2948 10.0782 61.5277 10.5092L61.5076 10.0038H60.1321V20.1211H61.588V11.801C62.2479 11.4073 63.0016 11.1981 63.77 11.1953C64.0882 11.178 64.4058 11.2367 64.6968 11.3665C64.9878 11.4962 65.2437 11.6934 65.4434 11.9416C65.7549 12.3836 65.9082 12.9178 65.8785 13.4577V20.1211H67.3343V13.0628C67.3417 12.6245 67.2514 12.19 67.0699 11.791L67.6958 11.4865C68.0312 11.3439 68.3849 11.2493 68.7467 11.2053C69.0044 11.1852 69.2219 11.1852 69.416 11.1852C69.6591 11.1927 69.9001 11.2332 70.1322 11.3057C70.8886 11.5634 71.2634 12.2696 71.2634 13.4276V20.1211H72.7193V13.1331C72.7501 12.2661 72.447 11.4203 71.8725 10.7702C71.5785 10.4585 71.2204 10.2142 70.8229 10.0542C70.4254 9.89415 69.998 9.82217 69.57 9.84319ZM76.8224 10.3854C77.4825 10.0168 78.2285 9.82968 78.9844 9.84321C79.7089 9.82806 80.4292 9.95777 81.1029 10.2247C82.2475 10.7513 82.8198 11.7207 82.8198 13.1331V16.9517C82.8198 18.2904 82.2943 19.2253 81.2434 19.7563C80.4126 20.1703 79.4942 20.3781 78.566 20.3621C77.4908 20.3554 76.4173 20.2749 75.3531 20.1211V5.98774H76.8224V10.3854ZM81.3874 16.9718V13.3506C81.4191 12.7967 81.2301 12.2528 80.8619 11.8379C80.6326 11.6175 80.3593 11.4478 80.0601 11.34C79.7608 11.2322 79.4422 11.1886 79.125 11.212L78.1209 11.3124C77.6644 11.4038 77.2259 11.5688 76.8224 11.8011V18.8694C77.3265 18.9484 77.8351 18.9954 78.3452 19.01C78.5384 19.0173 78.7319 19.0106 78.9241 18.9899C79.5436 19.0069 80.1519 18.8225 80.6578 18.4645C80.8942 18.2965 81.0847 18.0717 81.2116 17.8109C81.3385 17.5501 81.3978 17.2615 81.384 16.9718H81.3874ZM91.1164 20.1211H92.5086V10.0038H91.0561V16.6271C91.0539 18.1889 90.2931 18.9698 88.7736 18.9698C87.2118 18.972 86.4309 18.1978 86.4309 16.6471V10.0038H84.9751V16.6605C84.9751 19.1148 86.2413 20.342 88.7736 20.342C89.2111 20.362 89.6477 20.2858 90.0525 20.1187C90.4573 19.9516 90.8205 19.6976 91.1164 19.3748V20.1211ZM94.6071 17.5575L96.0227 17.4972C96.0455 17.7363 96.1252 17.9664 96.255 18.1685C96.3848 18.3705 96.5611 18.5385 96.7691 18.6586C97.2321 18.9378 97.7646 19.0805 98.3052 19.0702C98.833 19.0839 99.3539 18.9482 99.8079 18.6786C100.007 18.5659 100.171 18.401 100.283 18.2016C100.395 18.0022 100.451 17.776 100.444 17.5474C100.457 17.3221 100.416 17.0969 100.324 16.8908C100.232 16.6846 100.091 16.5035 99.915 16.3627C99.5132 16.06 99.0595 15.8332 98.5763 15.6933C98.0498 15.526 97.5221 15.3486 96.9933 15.1612C96.464 14.9734 95.9837 14.6692 95.5877 14.271C95.3479 14.0525 95.1573 13.7856 95.0286 13.4878C94.8999 13.1901 94.8361 12.8684 94.8413 12.544C94.8553 11.8291 95.1484 11.148 95.6579 10.6464C96.2024 10.0619 97.0881 9.76846 98.3153 9.76623C98.7242 9.76309 99.1317 9.81487 99.5268 9.92018C99.8063 9.98461 100.077 10.0824 100.333 10.2113L100.584 10.3385L100.119 11.6136C99.6272 11.2576 99.0289 11.0794 98.4224 11.1083C97.8719 11.0681 97.3229 11.2054 96.8561 11.4999C96.6956 11.6132 96.5649 11.7637 96.4751 11.9386C96.3854 12.1134 96.3392 12.3074 96.3407 12.5039C96.3411 12.7215 96.4016 12.9349 96.5156 13.1203C96.6296 13.3058 96.7926 13.4561 96.9866 13.5548C97.4467 13.8229 97.9349 14.0395 98.4425 14.2007C98.9813 14.3747 99.5168 14.5722 100.049 14.7864C100.574 15.0009 101.035 15.3466 101.388 15.7904C101.78 16.3125 101.976 16.9556 101.943 17.6077C101.942 17.9819 101.86 18.3514 101.703 18.691C101.546 19.0307 101.317 19.3324 101.033 19.5756C100.428 20.1334 99.5435 20.4134 98.3789 20.4156C97.2142 20.4178 96.3016 20.1412 95.6412 19.5856C95.3304 19.3443 95.0766 19.0375 94.8978 18.6869C94.7191 18.3364 94.6198 17.9508 94.6071 17.5575Z" fill="#0E3659"/>
<path fill-rule="evenodd" clip-rule="evenodd" d="M49.8966 25.3647V33.8988H48.9319V30.0946H43.9647V33.8988H43V25.3647H43.9647V29.1689H48.9319V25.3647H49.8966ZM57.6645 30.6742C57.6645 32.518 56.4392 34 54.4671 34C52.495 34 51.2697 32.518 51.2697 30.6742C51.2697 28.8304 52.495 27.3484 54.4671 27.3484C56.4392 27.3484 57.6645 28.8304 57.6645 30.6742ZM56.6959 30.6742C56.6959 29.3478 55.8985 28.2236 54.4671 28.2236C53.0356 28.2236 52.2382 29.3478 52.2382 30.6742C52.2382 32.0006 53.0356 33.1248 54.4671 33.1248C55.8985 33.1248 56.6959 32.0045 56.6959 30.6742ZM63.2502 33.8988H64.2188L64.2032 30.0207C64.1864 29.7843 64.2191 29.5469 64.2994 29.3238C64.3797 29.1008 64.5058 28.897 64.6695 28.7255C64.8333 28.5541 65.0311 28.4188 65.2502 28.3283C65.4693 28.2379 65.705 28.1943 65.942 28.2003C66.8444 28.2003 67.5407 28.9238 67.5407 30.0052V33.895H68.5092V30.0052C68.5092 28.3792 67.3618 27.3484 66.1248 27.3484C65.673 27.3499 65.2296 27.4713 64.84 27.7002C64.4505 27.9292 64.1287 28.2575 63.9076 28.6515C63.7228 28.2637 63.4325 27.9358 63.0699 27.7054C62.7074 27.4749 62.2873 27.3512 61.8577 27.3484C61.4662 27.3368 61.0788 27.4311 60.7365 27.6215C60.3941 27.8118 60.1095 28.0911 59.9128 28.4298V27.4535H58.9443V33.8794H59.9128V30.0246C59.8959 29.7881 59.9287 29.5508 60.009 29.3277C60.0893 29.1046 60.2154 28.9009 60.3791 28.7294C60.5428 28.558 60.7406 28.4227 60.9598 28.3322C61.1789 28.2418 61.4146 28.1982 61.6515 28.2042C62.554 28.2042 63.2502 28.9277 63.2502 30.0091V33.8988ZM74.8885 32.0434H75.9465C75.7318 32.6415 75.3294 33.1541 74.7994 33.5046C74.2694 33.8552 73.6402 34.0248 73.0058 33.9883C72.5689 33.9994 72.1344 33.9205 71.7293 33.7565C71.3242 33.5924 70.9572 33.3468 70.6511 33.0349C70.345 32.7229 70.1063 32.3513 69.95 31.9432C69.7936 31.5351 69.723 31.0992 69.7423 30.6625C69.7423 28.8188 70.9676 27.3368 72.9397 27.3368C74.9118 27.3368 76.1371 28.8188 76.1371 30.6625V31.0515H70.7342C70.7806 31.6213 71.0428 32.1519 71.4671 32.535C71.8914 32.9181 72.4459 33.1249 73.0175 33.1131C73.3985 33.1293 73.7763 33.0375 74.1073 32.8482C74.4384 32.6589 74.7092 32.3799 74.8885 32.0434ZM70.7498 30.1608H75.1335C75.066 29.6271 74.806 29.1365 74.4025 28.7808C73.999 28.4252 73.4795 28.2289 72.9417 28.2289C72.4038 28.2289 71.8843 28.4252 71.4808 28.7808C71.0773 29.1365 70.8173 29.6271 70.7498 30.1608ZM81.1199 29.1689H82.1001C81.9834 28.2392 81.2288 27.3484 79.5679 27.3484C77.907 27.3484 77.0395 28.0253 77.0395 29.1922C77.0395 30.4853 78.323 30.768 79.4841 31.0238C80.4429 31.235 81.3183 31.4278 81.3183 32.1562C81.3183 33.0353 80.198 33.1753 79.669 33.1753C78.4165 33.1753 77.9264 32.5296 77.8642 31.8761H76.8567C76.9345 33.0081 77.8642 34 79.6574 34C81.2561 34 82.2869 33.3076 82.2869 32.0551C82.2869 30.7097 80.9681 30.4242 79.7949 30.1701C78.8548 29.9665 78.0081 29.7832 78.0081 29.0911C78.0081 28.457 78.5566 28.1614 79.564 28.1614C80.6298 28.1614 81.0421 28.6126 81.1199 29.1689Z" fill="#0D6EAC"/>
</g>
<defs>
<clipPath id="clip0_2893_10464">
<rect width="109" height="40" fill="white"/>
</clipPath>
</defs>
</svg>
